<svg width="28" height="284" viewBox="0 0 28 284" fill="none" xmlns="http://www.w3.org/2000/svg">
<path d="M10.4543 283C15.4543 278.616 23.7242 265.779 10.4543 253.214C-2.61911 240.835 -2.59117 227.296 10.4543 220.333C23.5 213.37 27.5 197.897 10.4543 182.811C5.00015 177.395 0.854492 166.719 10.4543 158.054C22.4541 147.222 22.9997 130.588 10.4543 119.757C0.999711 109.313 5.49979 102.35 10.4543 94.6132C17.4906 83.6259 15.2876 70.7586 10.4543 64.0535C4 55.0996 4 48.5803 10.4543 40.07C20.5567 26.7495 25.3809 24.9836 10.4543 4.4815" stroke="#F8F3E6" stroke-linecap="round"/>
<path d="M15.7948 279.519C20.7948 275.134 29.0646 262.297 15.7948 249.733C2.72131 237.354 2.74926 223.815 15.7948 216.852C28.8404 209.889 32.8404 194.416 15.7948 179.329C10.3406 173.914 6.19492 163.237 15.7947 154.572C27.7945 143.741 28.3401 127.107 15.7948 116.276C6.34014 105.831 10.8402 98.8684 15.7948 91.1317C22.831 80.1444 20.628 67.2771 15.7947 60.5721C9.34043 51.6181 9.34043 45.0988 15.7947 36.5885C25.8972 23.2681 30.7213 21.5021 15.7947 1.00006" stroke="#F8F3E6" stroke-linecap="round"/>
</svg>
