<svg width="50" height="50" viewBox="0 0 50 50" fill="none" xmlns="http://www.w3.org/2000/svg">
<path d="M49 25.1517C49 36.8047 40.8056 46.5229 29.9067 48.8004V33.4217H34.7317H35.5908L35.7202 32.5724L36.8286 25.3024L37.004 24.1517H35.84H29.9067V20.435C29.9067 19.5835 30.1153 18.8663 30.5369 18.3751C30.9343 17.9122 31.6453 17.505 32.9783 17.505H36.1333H37.1333V16.505V10.315V9.47208L36.3026 9.32943L36.1333 10.315C36.3026 9.32943 36.3025 9.32941 36.3024 9.32939L36.3021 9.32935L36.3014 9.32923L36.2992 9.32886L36.2918 9.32759L36.2647 9.32305C36.2413 9.31915 36.2074 9.31357 36.1637 9.30655C36.0763 9.2925 35.9497 9.27267 35.7898 9.24897C35.4701 9.20161 35.0163 9.13871 34.4755 9.07585C33.3982 8.95064 31.957 8.82333 30.5367 8.82333C27.477 8.82333 24.838 9.76028 22.9635 11.6484C21.0887 13.5367 20.0933 16.2605 20.0933 19.61V24.15H14.7467H13.7467V25.15V32.4233V33.4233H14.7467H20.0933V48.8004C9.19436 46.5229 1 36.8047 1 25.1517C1 11.8066 11.7497 1 25 1C38.2503 1 49 11.8066 49 25.1517Z" stroke="#8C93F7" stroke-width="2"/>
</svg>
