<svg width="22" height="20" viewBox="0 0 22 20" fill="none" xmlns="http://www.w3.org/2000/svg">
<path d="M20.9999 3.09249C20.1066 1.25915 17.5332 -0.240848 14.5399 0.632485C13.1096 1.04564 11.8616 1.93167 10.9999 3.14582C10.1382 1.93167 8.89027 1.04564 7.45991 0.632485C4.45991 -0.227515 1.89324 1.25915 0.999911 3.09249C-0.253422 5.65915 0.266578 8.54582 2.54658 11.6725C4.33325 14.1192 6.88658 16.5992 10.5932 19.4792C10.7104 19.5705 10.8547 19.6201 11.0032 19.6201C11.1518 19.6201 11.2961 19.5705 11.4132 19.4792C15.1132 16.6058 17.6732 14.1458 19.4599 11.6725C21.7332 8.54582 22.2532 5.65915 20.9999 3.09249Z" fill="#FF797E"/>
</svg>
