<svg width="50" height="50" viewBox="0 0 50 50" fill="none" xmlns="http://www.w3.org/2000/svg">
<path d="M36.4316 2.13477H13.5657C7.25151 2.13477 2.13281 7.25346 2.13281 13.5677V36.4335C2.13281 42.7478 7.25151 47.8665 13.5657 47.8665H36.4316C42.7458 47.8665 47.8645 42.7478 47.8645 36.4335V13.5677C47.8645 7.25346 42.7458 2.13477 36.4316 2.13477Z" stroke="#8C93F7" stroke-width="2" stroke-linecap="round" stroke-linejoin="round"/>
<path d="M34.1469 23.5586C34.4291 25.4616 34.104 27.4052 33.218 29.1128C32.3319 30.8204 30.93 32.2052 29.2116 33.0701C27.4932 33.935 25.5458 34.2361 23.6464 33.9304C21.747 33.6248 19.9924 32.728 18.632 31.3677C17.2717 30.0074 16.3749 28.2527 16.0693 26.3533C15.7637 24.454 16.0647 22.5066 16.9296 20.7882C17.7946 19.0697 19.1793 17.6678 20.8869 16.7818C22.5946 15.8957 24.5381 15.5707 26.4411 15.8528C28.3822 16.1407 30.1793 17.0452 31.5669 18.4328C32.9545 19.8204 33.859 21.6175 34.1469 23.5586Z" stroke="#8C93F7" stroke-width="2" stroke-linecap="round" stroke-linejoin="round"/>
<path d="M37.5781 12.4238H37.5995" stroke="#8C93F7" stroke-width="2" stroke-linecap="round" stroke-linejoin="round"/>
</svg>
