<svg width="50" height="50" viewBox="0 0 50 50" fill="none" xmlns="http://www.w3.org/2000/svg">
<path d="M24 1L26 1C31.6851 1 35.8484 1.00212 39.034 1.43042C42.1909 1.85485 44.2376 2.68124 45.7782 4.22183C47.3188 5.76242 48.1451 7.80911 48.5696 10.966C48.9979 14.1516 49 18.3149 49 24V26C49 31.6851 48.9979 35.8484 48.5696 39.034C48.1451 42.1909 47.3188 44.2376 45.7782 45.7782C44.2376 47.3188 42.1909 48.1451 39.034 48.5696C35.8484 48.9979 31.6851 49 26 49H24C18.3149 49 14.1516 48.9979 10.966 48.5696C7.80911 48.1451 5.76242 47.3188 4.22183 45.7782C2.68124 44.2376 1.85485 42.1909 1.43042 39.034C1.00212 35.8484 1 31.6851 1 26L1 24C1 18.3149 1.00212 14.1516 1.43042 10.966C1.85485 7.80911 2.68124 5.76242 4.22183 4.22183C5.76242 2.68124 7.80911 1.85485 10.966 1.43042C14.1516 1.00212 18.3149 1 24 1Z" stroke="#8C93F7" stroke-width="2"/>
<path d="M22.3749 29.6256V15.709H26.7501V23.4381V23.9948L27.3036 23.9352C29.1092 23.741 30.8989 22.6287 32.3677 21.0819C33.7592 19.6164 34.9042 17.7187 35.5385 15.709H39.9313C38.8941 20.3134 35.4499 23.7224 32.9787 25.1511L32.1498 25.6303L33.0167 26.0367C35.4915 27.1967 39.4255 30.1791 41.1224 35.5215H36.234C34.8429 31.5775 31.5965 28.514 27.2996 28.0864L26.7501 28.0317V28.584L26.7501 35.5215H26.6041C21.0287 35.5215 16.702 33.6154 13.7277 30.1638C10.8229 26.7929 9.16123 21.8929 8.95135 15.709H13.6592C13.9821 25.044 18.188 29.2193 21.7536 30.1107L22.3749 30.266V29.6256Z" fill="#8C93F7" stroke="#8C93F7"/>
</svg>
